# This file uses centimeters as units for non-parametric coordinates.

v -0.016251 1.981833 0.341046
v -0.007852 1.981833 0.346653
v 0.000548 1.981833 0.341046
v 0.166696 1.981833 0.020863
v 0.176403 1.981833 0.037648
v 0.176390 1.981833 0.026455
v -0.182398 1.981833 0.020863
v -0.192092 1.981833 0.026455
v -0.192105 1.981833 0.037647
v -0.007852 2.028079 0.324901
v -0.016252 2.028079 0.320044
v 0.000549 2.028079 0.320044
v 0.151800 2.028079 0.057157
v 0.151789 2.028079 0.047459
v 0.143389 2.028079 0.042613
v -0.155500 2.028079 0.036393
v -0.164546 2.028079 0.042359
v -0.165205 2.028079 0.053178
v -0.007852 2.059747 0.293639
v -0.014391 2.059747 0.289858
v -0.001312 2.059747 0.289857
v 0.116438 2.059747 0.085198
v 0.116430 2.059747 0.077648
v 0.109890 2.059747 0.073876
v -0.116838 2.059747 0.058714
v -0.124955 2.059747 0.065217
v -0.126542 2.059747 0.075500
v 0.089123 1.981833 0.189346
v 0.079089 2.028079 0.183553
v 0.064666 2.059747 0.175226
v -0.024138 0.032293 0.658553
v -0.017120 0.009650 0.654213
v -0.000314 0.000000 0.638579
v -0.440994 0.000000 -0.128646
v -0.463013 0.009748 -0.121262
v -0.469720 0.032503 -0.115936
v 0.001533 -0.000000 0.638580
v 0.018339 0.009650 0.654212
v 0.025358 0.032293 0.658553
v 0.223138 0.000000 0.254918
v 0.241955 0.009511 0.266124
v 0.248486 0.031999 0.270781
v 0.441533 0.000000 -0.128831
v 0.446507 0.010065 -0.151329
v 0.446067 0.033186 -0.158690
v -0.444847 0.033186 -0.158690
v -0.445287 0.010065 -0.151329
v -0.440313 0.000000 -0.128831
v 0.000609 0.032640 0.672821
v 0.000610 0.009834 0.664348
v 0.000610 -0.000000 0.639113
v 0.470787 0.033326 -0.144401
v 0.463754 0.010180 -0.141269
v 0.443482 0.000000 -0.128308
v 0.464614 0.009748 -0.121160
v 0.470940 0.032503 -0.115935
v -0.469567 0.033326 -0.144401
v -0.462715 0.010179 -0.141373
v -0.440899 -0.000000 -0.129168
v 0.059373 2.067117 0.172171
v 0.056486 2.067117 0.170504
v -0.007851 2.067117 0.280340
v -0.002079 2.067117 0.277001
v -0.013624 2.067117 0.277001
v 0.050713 2.067117 0.167170
v -0.107987 2.067117 0.075014
v 0.097194 2.067116 0.086345
v -0.100254 2.067117 0.068289
v 0.102967 2.067117 0.089674
v 0.102974 2.067117 0.096339
v -0.109956 2.067117 0.085076
v 0.001048 0.000000 0.127526
vt 0.564735 0.681871
vt 0.568176 0.682072
vt 0.561989 0.698706
vt 0.558735 0.698038
vt 0.657020 0.014071
vt 0.666754 0.014655
vt 0.552815 0.711059
vt 0.550343 0.710279
vt 0.445067 0.682310
vt 0.454590 0.698936
vt 0.657086 0.005860
vt 0.664524 0.005879
vt 0.351903 0.014075
vt 0.548876 0.714659
vt 0.546715 0.713757
vt 0.467849 0.712184
vt 0.351335 0.005808
vt 0.473477 0.716372
vt 0.123334 0.682990
vt 0.242335 0.683408
vt 0.232669 0.700100
vt 0.130782 0.700352
vt 0.024939 0.015978
vt 0.329295 0.014073
vt 0.219171 0.713249
vt 0.141610 0.715682
vt 0.119530 0.683311
vt 0.127575 0.701286
vt 0.015215 0.016604
vt 0.024564 0.007718
vt 0.329495 0.005808
vt 0.213387 0.717265
vt 0.145693 0.720750
vt 0.139187 0.716620
vt 0.017203 0.008080
vt 0.006231 0.012846
vt 0.010734 0.005815
vt 0.828922 0.714472
vt 0.312625 0.262768
vt 0.313900 0.306211
vt 0.787275 0.714495
vt 0.143571 0.721681
vt 0.858941 0.714448
vt 0.316176 0.306156
vt 0.314900 0.262716
vt 0.781192 0.711770
vt 0.783660 0.710984
vt 0.828930 0.711204
vt 0.314220 0.230889
vt 0.864504 0.711163
vt 0.470576 0.718421
vt 0.771956 0.699423
vt 0.775202 0.698724
vt 0.878750 0.698907
vt 0.881968 0.699759
vt 0.464762 0.713933
vt 0.451135 0.700187
vt 0.246001 0.684448
vt 0.741349 0.918267
vt 0.738730 0.926357
vt 0.475405 0.771827
vt 0.481134 0.765397
vt 0.741714 0.918273
vt 0.746125 0.926141
vt 0.472121 0.765194
vt 0.481078 0.765230
vt 0.655542 0.766486
vt 0.741899 0.917963
vt 0.750175 0.919921
vt 0.475638 0.758791
vt 0.481312 0.765226
vt 0.743009 0.766663
vt 0.751168 0.766800
vt 0.739697 0.607739
vt 0.742354 0.615900
vt 0.743017 0.615729
vt 0.751163 0.614064
vt 0.746933 0.607979
vt 0.765618 0.682780
vt 0.769060 0.682570
vt 0.669228 0.015338
vt 0.678961 0.014722
vt 0.828993 0.682660
vt 0.828956 0.698975
vt 0.678745 0.006534
vt 0.671339 0.006608
vt 0.831736 0.013957
vt 0.888719 0.682656
vt 0.831938 0.005808
vt 0.984093 0.014251
vt 0.892525 0.682957
vt 0.984571 0.006006
vt 0.993769 0.015191
vt 0.342209 0.014797
vt 0.246152 0.683623
vt 0.336763 0.005815
vt 0.441250 0.682534
vt 0.344107 0.006031
vt 0.339032 0.014555
vt 0.376479 0.264450
vt 0.377537 0.261113
vt 0.376323 0.257832
vt 0.222208 0.715061
vt 0.216214 0.719405
vt 0.236098 0.701395
vt 0.441384 0.683302
vt 0.785115 0.715381
vt 0.311487 0.262794
vt 0.312718 0.304265
vt 0.861058 0.715372
vt 0.311946 0.230940
vt 0.310851 0.232935
vt 0.866942 0.712034
vn 0.527504 0.792908 0.305018
vn -0.000011 1.000000 -0.000007
vn -0.000001 0.995273 0.097115
vn 0.500072 0.812579 0.299404
vn -0.856538 0.087671 0.508583
vn -0.001264 0.168004 0.985786
vn 0.000000 0.524297 0.851536
vn -0.811627 0.342715 0.473084
vn 0.848995 0.096436 0.519526
vn 0.810354 0.307394 0.498834
vn 0.862536 0.093348 0.497311
vn 0.818523 0.327281 0.472131
vn 0.875708 0.096457 0.473109
vn 0.851816 0.176823 -0.493095
vn 0.649130 0.663074 -0.372778
vn 0.837858 0.309845 0.449434
vn 0.013738 0.096339 -0.995254
vn 0.027430 0.454488 -0.890330
vn -0.013763 0.096093 -0.995277
vn -0.004038 0.444951 -0.895546
vn -0.853666 0.169923 -0.492322
vn -0.640046 0.673327 -0.370096
vn -0.869768 0.087693 0.485606
vn -0.826309 0.343056 0.446683
vn -0.000001 0.730246 0.683184
vn -0.728445 0.552853 0.404624
vn 0.743261 0.496737 0.448123
vn 0.749219 0.502551 0.431408
vn 0.481421 0.836839 -0.260642
vn 0.761145 0.495486 0.418511
vn 0.040016 0.671502 -0.739921
vn 0.018796 0.666585 -0.745192
vn -0.461853 0.845797 -0.267056
vn -0.734138 0.560784 0.382834
vn -0.193838 0.975774 0.101449
vn 0.000001 1.000000 -0.000002
vn -0.008443 0.999952 -0.004884
vn 0.017755 0.978699 -0.204533
vn 0.009033 0.989269 -0.145829
vn 0.104506 0.993088 -0.053427
vn 0.538440 0.787340 0.300297
vn -0.105347 0.993062 0.052245
vn -0.138002 -0.987157 0.080477
vn -0.643626 -0.663899 0.380768
vn -0.646195 -0.672826 0.360191
vn -0.138180 -0.987330 0.078009
vn -0.855273 0.078441 0.512206
vn -0.872211 0.078249 0.482829
vn 0.017672 0.086755 -0.996073
vn 0.009416 -0.644497 -0.764549
vn -0.009327 -0.644429 -0.764608
vn -0.017496 0.086624 -0.996087
vn 0.001298 -0.986622 -0.163022
vn -0.000466 -0.986314 -0.164879
vn 0.748833 -0.477309 -0.459810
vn 0.660814 -0.660658 0.356169
vn 0.140378 -0.987159 0.076227
vn 0.855821 0.165751 -0.489998
vn 0.879724 0.087944 0.467282
vn 0.846189 0.088061 0.525556
vn 0.863256 0.084205 0.497693
vn 0.001451 0.158282 0.987393
vn -0.856127 0.158607 -0.491823
vn 0.136446 -0.987318 0.081149
vn -0.000000 -1.000000 -0.000000
vn 0.055675 -0.997934 0.032055
vn 0.000017 -0.515141 0.857105
vn -0.000023 -0.968380 0.249481
vn 0.644145 -0.656477 0.392576
vn 0.633870 -0.682018 0.364775
vn -0.751365 -0.478477 -0.454434
vn -0.260629 -0.942907 -0.207363
s 1
f 60/108/1 61/39/2 62/40/3 63/109/4
f 1/1/5 2/2/6 10/3/7 11/4/8
f 2/79/6 3/80/9 12/53/10 10/52/7
f 3/80/9 28/83/11 29/84/12 12/53/10
f 5/88/13 6/91/14 14/55/15 13/54/16
f 6/27/14 4/19/17 15/22/18 14/28/15
f 4/19/17 7/20/19 16/21/20 15/22/18
f 7/20/19 8/58/21 17/105/22 16/21/20
f 8/106/21 9/9/23 18/10/24 17/57/22
f 9/9/23 1/1/5 11/4/8 18/10/24
f 11/4/8 10/3/7 19/7/25 20/8/26
f 10/52/7 12/53/10 21/47/27 19/46/25
f 12/53/10 29/84/12 30/48/28 21/47/27
f 13/54/16 14/55/15 23/113/29 22/50/30
f 14/28/15 15/22/18 24/26/31 23/34/29
f 15/22/18 16/21/20 25/25/32 24/26/31
f 16/21/20 17/105/22 26/103/33 25/25/32
f 17/57/22 18/10/24 27/16/34 26/56/33
f 18/10/24 11/4/8 20/8/26 27/16/34
f 64/44/35 62/40/3 61/39/2 65/45/36
f 66/101/37 65/45/36 67/49/38 68/102/39
f 29/84/12 28/83/11 5/88/13 13/54/16
f 30/48/28 29/84/12 13/54/16 22/50/30
f 69/111/40 61/39/2 60/108/1 70/112/41
f 65/45/36 61/39/2 69/111/40 67/49/38
f 64/44/35 65/45/36 66/101/37 71/100/42
f 33/59/43 32/60/44 35/61/45 34/62/46
f 32/11/44 31/5/47 36/13/48 35/17/45
f 45/23/49 44/30/50 47/31/51 46/24/52
f 44/74/50 43/75/53 48/71/54 47/70/51
f 43/75/53 53/78/55 55/77/56 54/76/57
f 53/35/55 52/29/58 56/36/59 55/37/56
f 3/80/9 39/82/60 42/87/61 28/83/11
f 9/9/23 36/13/48 31/5/47 1/1/5
f 4/19/17 45/23/49 46/24/52 7/20/19
f 31/5/47 49/6/62 2/2/6 1/1/5
f 49/81/62 39/82/60 3/80/9 2/79/6
f 56/90/59 52/93/58 6/91/14 5/88/13
f 52/29/58 45/23/49 4/19/17 6/27/14
f 46/24/52 57/99/63 8/95/21 7/20/19
f 57/94/63 36/13/48 9/9/23 8/97/21
f 37/68/64 72/67/65 40/72/66
f 28/83/11 42/87/61 56/90/59 5/88/13
f 31/5/47 32/11/44 50/12/67 49/6/62
f 32/60/44 33/59/43 51/63/68 50/64/67
f 39/82/60 38/85/69 41/89/70 42/87/61
f 38/69/69 37/68/64 40/72/66 41/73/70
f 46/24/52 47/31/51 58/96/71 57/99/63
f 47/70/51 48/71/54 59/66/72 58/65/71
f 37/68/64 38/69/69 50/64/67 51/63/68
f 38/85/69 39/82/60 49/81/62 50/86/67
f 43/75/53 44/74/50 53/78/55
f 44/30/50 45/23/49 52/29/58 53/35/55
f 42/87/61 41/89/70 55/92/56 56/90/59
f 41/73/70 40/72/66 54/76/57 55/77/56
f 34/62/46 35/61/45 58/65/71 59/66/72
f 35/17/45 36/13/48 57/94/63 58/98/71
f 19/46/25 21/47/27 63/41/4 62/107/3
f 21/47/27 30/48/28 60/38/1 63/41/4
f 20/8/26 19/7/25 62/14/3 64/15/35
f 24/26/31 25/25/32 68/32/39 67/33/38
f 25/25/32 26/103/33 66/104/37 68/32/39
f 30/48/28 22/50/30 70/43/41 60/38/1
f 22/50/30 23/113/29 69/110/40 70/43/41
f 23/34/29 24/26/31 67/33/38 69/42/40
f 26/56/33 27/16/34 71/18/42 66/51/37
f 27/16/34 20/8/26 64/15/35 71/18/42
f 59/66/72 48/71/54 72/67/65
f 72/67/65 48/71/54 43/75/53
f 72/67/65 43/75/53 54/76/57
f 72/67/65 54/76/57 40/72/66
f 51/63/68 72/67/65 37/68/64
f 33/59/43 72/67/65 51/63/68
f 34/62/46 72/67/65 33/59/43
f 59/66/72 72/67/65 34/62/46
